<mxfile host="app.diagrams.net" modified="2020-07-16T15:38:19.525Z" agent="5.0 (Macintosh; Intel Mac OS X 10_15_5) AppleWebKit/537.36 (KHTML, like Gecko) Chrome/83.0.4103.116 Safari/537.36" etag="9MYJFipJTK0zl_WqtEQM" version="13.4.2" type="github">
  <diagram id="czfhkN5AWZ91nqbuj84y" name="Page-1">
    <mxGraphModel dx="1186" dy="715" grid="1" gridSize="10" guides="1" tooltips="1" connect="1" arrows="1" fold="1" page="1" pageScale="1" pageWidth="827" pageHeight="1169" math="0" shadow="0">
      <root>
        <mxCell id="0" />
        <mxCell id="1" parent="0" />
        <mxCell id="sCZkjAEtWjabLYPIgtKf-18" style="edgeStyle=orthogonalEdgeStyle;rounded=0;orthogonalLoop=1;jettySize=auto;html=1;entryX=0;entryY=0.5;entryDx=0;entryDy=0;strokeWidth=2;fillColor=#d5e8d4;strokeColor=#82b366;" edge="1" parent="1" source="sCZkjAEtWjabLYPIgtKf-1" target="sCZkjAEtWjabLYPIgtKf-4">
          <mxGeometry relative="1" as="geometry" />
        </mxCell>
        <mxCell id="sCZkjAEtWjabLYPIgtKf-19" style="edgeStyle=orthogonalEdgeStyle;rounded=0;orthogonalLoop=1;jettySize=auto;html=1;entryX=-0.009;entryY=0.75;entryDx=0;entryDy=0;entryPerimeter=0;strokeWidth=2;fillColor=#d5e8d4;strokeColor=#82b366;" edge="1" parent="1" source="sCZkjAEtWjabLYPIgtKf-1" target="sCZkjAEtWjabLYPIgtKf-6">
          <mxGeometry relative="1" as="geometry" />
        </mxCell>
        <mxCell id="sCZkjAEtWjabLYPIgtKf-20" style="edgeStyle=orthogonalEdgeStyle;rounded=0;orthogonalLoop=1;jettySize=auto;html=1;entryX=0;entryY=0.5;entryDx=0;entryDy=0;strokeWidth=2;fillColor=#d5e8d4;strokeColor=#82b366;" edge="1" parent="1" source="sCZkjAEtWjabLYPIgtKf-1" target="sCZkjAEtWjabLYPIgtKf-12">
          <mxGeometry relative="1" as="geometry">
            <Array as="points">
              <mxPoint x="590" y="200" />
              <mxPoint x="590" y="320" />
            </Array>
          </mxGeometry>
        </mxCell>
        <mxCell id="sCZkjAEtWjabLYPIgtKf-21" style="edgeStyle=orthogonalEdgeStyle;rounded=0;orthogonalLoop=1;jettySize=auto;html=1;strokeWidth=2;fillColor=#d5e8d4;strokeColor=#82b366;" edge="1" parent="1" source="sCZkjAEtWjabLYPIgtKf-1" target="sCZkjAEtWjabLYPIgtKf-16">
          <mxGeometry relative="1" as="geometry">
            <Array as="points">
              <mxPoint x="590" y="200" />
              <mxPoint x="590" y="400" />
            </Array>
          </mxGeometry>
        </mxCell>
        <mxCell id="sCZkjAEtWjabLYPIgtKf-1" value="Parent Page Table" style="rounded=0;whiteSpace=wrap;html=1;fillColor=#d5e8d4;strokeColor=#82b366;" vertex="1" parent="1">
          <mxGeometry x="430" y="170" width="120" height="60" as="geometry" />
        </mxCell>
        <mxCell id="sCZkjAEtWjabLYPIgtKf-22" style="edgeStyle=orthogonalEdgeStyle;rounded=0;orthogonalLoop=1;jettySize=auto;html=1;entryX=-0.027;entryY=0.8;entryDx=0;entryDy=0;entryPerimeter=0;strokeWidth=2;fillColor=#f8cecc;strokeColor=#b85450;" edge="1" parent="1" source="sCZkjAEtWjabLYPIgtKf-2" target="sCZkjAEtWjabLYPIgtKf-4">
          <mxGeometry relative="1" as="geometry">
            <Array as="points">
              <mxPoint x="570" y="340" />
              <mxPoint x="570" y="172" />
            </Array>
          </mxGeometry>
        </mxCell>
        <mxCell id="sCZkjAEtWjabLYPIgtKf-23" style="edgeStyle=orthogonalEdgeStyle;rounded=0;orthogonalLoop=1;jettySize=auto;html=1;entryX=0;entryY=0.5;entryDx=0;entryDy=0;strokeWidth=2;fillColor=#f8cecc;strokeColor=#b85450;" edge="1" parent="1" source="sCZkjAEtWjabLYPIgtKf-2" target="sCZkjAEtWjabLYPIgtKf-6">
          <mxGeometry relative="1" as="geometry">
            <Array as="points">
              <mxPoint x="570" y="340" />
              <mxPoint x="570" y="200" />
            </Array>
          </mxGeometry>
        </mxCell>
        <mxCell id="sCZkjAEtWjabLYPIgtKf-24" style="edgeStyle=orthogonalEdgeStyle;rounded=0;orthogonalLoop=1;jettySize=auto;html=1;entryX=0;entryY=0.75;entryDx=0;entryDy=0;entryPerimeter=0;strokeWidth=2;fillColor=#f8cecc;strokeColor=#b85450;" edge="1" parent="1" source="sCZkjAEtWjabLYPIgtKf-2" target="sCZkjAEtWjabLYPIgtKf-12">
          <mxGeometry relative="1" as="geometry" />
        </mxCell>
        <mxCell id="sCZkjAEtWjabLYPIgtKf-25" style="edgeStyle=orthogonalEdgeStyle;rounded=0;orthogonalLoop=1;jettySize=auto;html=1;entryX=0;entryY=0.75;entryDx=0;entryDy=0;entryPerimeter=0;strokeWidth=2;fillColor=#f8cecc;strokeColor=#b85450;" edge="1" parent="1" source="sCZkjAEtWjabLYPIgtKf-2" target="sCZkjAEtWjabLYPIgtKf-16">
          <mxGeometry relative="1" as="geometry">
            <Array as="points">
              <mxPoint x="570" y="340" />
              <mxPoint x="570" y="410" />
            </Array>
          </mxGeometry>
        </mxCell>
        <mxCell id="sCZkjAEtWjabLYPIgtKf-2" value="Child Page Table" style="rounded=0;whiteSpace=wrap;html=1;fillColor=#f8cecc;strokeColor=#b85450;" vertex="1" parent="1">
          <mxGeometry x="430" y="310" width="120" height="60" as="geometry" />
        </mxCell>
        <mxCell id="sCZkjAEtWjabLYPIgtKf-3" value="" style="shape=table;html=1;whiteSpace=wrap;startSize=0;container=1;collapsible=0;childLayout=tableLayout;" vertex="1" parent="1">
          <mxGeometry x="640" y="140" width="110" height="280" as="geometry" />
        </mxCell>
        <mxCell id="sCZkjAEtWjabLYPIgtKf-4" value="" style="shape=partialRectangle;html=1;whiteSpace=wrap;collapsible=0;dropTarget=0;pointerEvents=0;fillColor=none;top=0;left=0;bottom=0;right=0;points=[[0,0.5],[1,0.5]];portConstraint=eastwest;" vertex="1" parent="sCZkjAEtWjabLYPIgtKf-3">
          <mxGeometry width="110" height="40" as="geometry" />
        </mxCell>
        <mxCell id="sCZkjAEtWjabLYPIgtKf-5" value="" style="shape=partialRectangle;html=1;whiteSpace=wrap;connectable=0;overflow=hidden;fillColor=#dae8fc;top=0;left=0;bottom=0;right=0;strokeColor=#6c8ebf;" vertex="1" parent="sCZkjAEtWjabLYPIgtKf-4">
          <mxGeometry width="110" height="40" as="geometry" />
        </mxCell>
        <mxCell id="sCZkjAEtWjabLYPIgtKf-6" value="" style="shape=partialRectangle;html=1;whiteSpace=wrap;collapsible=0;dropTarget=0;pointerEvents=0;fillColor=none;top=0;left=0;bottom=0;right=0;points=[[0,0.5],[1,0.5]];portConstraint=eastwest;" vertex="1" parent="sCZkjAEtWjabLYPIgtKf-3">
          <mxGeometry y="40" width="110" height="40" as="geometry" />
        </mxCell>
        <mxCell id="sCZkjAEtWjabLYPIgtKf-7" value="" style="shape=partialRectangle;html=1;whiteSpace=wrap;connectable=0;overflow=hidden;fillColor=#dae8fc;top=0;left=0;bottom=0;right=0;strokeColor=#6c8ebf;" vertex="1" parent="sCZkjAEtWjabLYPIgtKf-6">
          <mxGeometry width="110" height="40" as="geometry" />
        </mxCell>
        <mxCell id="sCZkjAEtWjabLYPIgtKf-8" value="" style="shape=partialRectangle;html=1;whiteSpace=wrap;collapsible=0;dropTarget=0;pointerEvents=0;fillColor=none;top=0;left=0;bottom=0;right=0;points=[[0,0.5],[1,0.5]];portConstraint=eastwest;" vertex="1" parent="sCZkjAEtWjabLYPIgtKf-3">
          <mxGeometry y="80" width="110" height="40" as="geometry" />
        </mxCell>
        <mxCell id="sCZkjAEtWjabLYPIgtKf-9" value="" style="shape=partialRectangle;html=1;whiteSpace=wrap;connectable=0;overflow=hidden;top=0;left=0;bottom=0;right=0;" vertex="1" parent="sCZkjAEtWjabLYPIgtKf-8">
          <mxGeometry width="110" height="40" as="geometry" />
        </mxCell>
        <mxCell id="sCZkjAEtWjabLYPIgtKf-10" value="" style="shape=partialRectangle;html=1;whiteSpace=wrap;collapsible=0;dropTarget=0;pointerEvents=0;fillColor=none;top=0;left=0;bottom=0;right=0;points=[[0,0.5],[1,0.5]];portConstraint=eastwest;" vertex="1" parent="sCZkjAEtWjabLYPIgtKf-3">
          <mxGeometry y="120" width="110" height="40" as="geometry" />
        </mxCell>
        <mxCell id="sCZkjAEtWjabLYPIgtKf-11" value="" style="shape=partialRectangle;html=1;whiteSpace=wrap;connectable=0;overflow=hidden;top=0;left=0;bottom=0;right=0;" vertex="1" parent="sCZkjAEtWjabLYPIgtKf-10">
          <mxGeometry width="110" height="40" as="geometry" />
        </mxCell>
        <mxCell id="sCZkjAEtWjabLYPIgtKf-12" value="" style="shape=partialRectangle;html=1;whiteSpace=wrap;collapsible=0;dropTarget=0;pointerEvents=0;fillColor=none;top=0;left=0;bottom=0;right=0;points=[[0,0.5],[1,0.5]];portConstraint=eastwest;" vertex="1" parent="sCZkjAEtWjabLYPIgtKf-3">
          <mxGeometry y="160" width="110" height="40" as="geometry" />
        </mxCell>
        <mxCell id="sCZkjAEtWjabLYPIgtKf-13" value="" style="shape=partialRectangle;html=1;whiteSpace=wrap;connectable=0;overflow=hidden;fillColor=#dae8fc;top=0;left=0;bottom=0;right=0;strokeColor=#6c8ebf;" vertex="1" parent="sCZkjAEtWjabLYPIgtKf-12">
          <mxGeometry width="110" height="40" as="geometry" />
        </mxCell>
        <mxCell id="sCZkjAEtWjabLYPIgtKf-14" value="" style="shape=partialRectangle;html=1;whiteSpace=wrap;collapsible=0;dropTarget=0;pointerEvents=0;fillColor=none;top=0;left=0;bottom=0;right=0;points=[[0,0.5],[1,0.5]];portConstraint=eastwest;" vertex="1" parent="sCZkjAEtWjabLYPIgtKf-3">
          <mxGeometry y="200" width="110" height="40" as="geometry" />
        </mxCell>
        <mxCell id="sCZkjAEtWjabLYPIgtKf-15" value="" style="shape=partialRectangle;html=1;whiteSpace=wrap;connectable=0;overflow=hidden;top=0;left=0;bottom=0;right=0;" vertex="1" parent="sCZkjAEtWjabLYPIgtKf-14">
          <mxGeometry width="110" height="40" as="geometry" />
        </mxCell>
        <mxCell id="sCZkjAEtWjabLYPIgtKf-16" value="" style="shape=partialRectangle;html=1;whiteSpace=wrap;collapsible=0;dropTarget=0;pointerEvents=0;fillColor=none;top=0;left=0;bottom=0;right=0;points=[[0,0.5],[1,0.5]];portConstraint=eastwest;" vertex="1" parent="sCZkjAEtWjabLYPIgtKf-3">
          <mxGeometry y="240" width="110" height="40" as="geometry" />
        </mxCell>
        <mxCell id="sCZkjAEtWjabLYPIgtKf-17" value="value" style="shape=partialRectangle;html=1;whiteSpace=wrap;connectable=0;overflow=hidden;fillColor=#dae8fc;top=0;left=0;bottom=0;right=0;strokeColor=#6c8ebf;" vertex="1" parent="sCZkjAEtWjabLYPIgtKf-16">
          <mxGeometry width="110" height="40" as="geometry" />
        </mxCell>
        <mxCell id="sCZkjAEtWjabLYPIgtKf-26" style="edgeStyle=orthogonalEdgeStyle;rounded=0;orthogonalLoop=1;jettySize=auto;html=1;entryX=0;entryY=0.5;entryDx=0;entryDy=0;strokeWidth=2;fillColor=#d5e8d4;strokeColor=#82b366;" edge="1" parent="1" source="sCZkjAEtWjabLYPIgtKf-30" target="sCZkjAEtWjabLYPIgtKf-37">
          <mxGeometry relative="1" as="geometry" />
        </mxCell>
        <mxCell id="sCZkjAEtWjabLYPIgtKf-27" style="edgeStyle=orthogonalEdgeStyle;rounded=0;orthogonalLoop=1;jettySize=auto;html=1;entryX=-0.009;entryY=0.75;entryDx=0;entryDy=0;entryPerimeter=0;strokeWidth=2;fillColor=#d5e8d4;strokeColor=#82b366;" edge="1" parent="1" source="sCZkjAEtWjabLYPIgtKf-30" target="sCZkjAEtWjabLYPIgtKf-39">
          <mxGeometry relative="1" as="geometry" />
        </mxCell>
        <mxCell id="sCZkjAEtWjabLYPIgtKf-28" style="edgeStyle=orthogonalEdgeStyle;rounded=0;orthogonalLoop=1;jettySize=auto;html=1;entryX=0;entryY=0.5;entryDx=0;entryDy=0;strokeWidth=2;fillColor=#d5e8d4;strokeColor=#82b366;" edge="1" parent="1" source="sCZkjAEtWjabLYPIgtKf-30" target="sCZkjAEtWjabLYPIgtKf-45">
          <mxGeometry relative="1" as="geometry">
            <Array as="points">
              <mxPoint x="960" y="200" />
              <mxPoint x="960" y="320" />
            </Array>
          </mxGeometry>
        </mxCell>
        <mxCell id="sCZkjAEtWjabLYPIgtKf-29" style="edgeStyle=orthogonalEdgeStyle;rounded=0;orthogonalLoop=1;jettySize=auto;html=1;strokeWidth=2;fillColor=#d5e8d4;strokeColor=#82b366;" edge="1" parent="1" source="sCZkjAEtWjabLYPIgtKf-30" target="sCZkjAEtWjabLYPIgtKf-49">
          <mxGeometry relative="1" as="geometry">
            <Array as="points">
              <mxPoint x="960" y="200" />
              <mxPoint x="960" y="400" />
            </Array>
          </mxGeometry>
        </mxCell>
        <mxCell id="sCZkjAEtWjabLYPIgtKf-30" value="Parent Page Table" style="rounded=0;whiteSpace=wrap;html=1;fillColor=#d5e8d4;strokeColor=#82b366;" vertex="1" parent="1">
          <mxGeometry x="800" y="170" width="120" height="60" as="geometry" />
        </mxCell>
        <mxCell id="sCZkjAEtWjabLYPIgtKf-31" style="edgeStyle=orthogonalEdgeStyle;rounded=0;orthogonalLoop=1;jettySize=auto;html=1;entryX=-0.027;entryY=0.8;entryDx=0;entryDy=0;entryPerimeter=0;strokeWidth=2;fillColor=#f8cecc;strokeColor=#b85450;" edge="1" parent="1" source="sCZkjAEtWjabLYPIgtKf-35" target="sCZkjAEtWjabLYPIgtKf-37">
          <mxGeometry relative="1" as="geometry">
            <Array as="points">
              <mxPoint x="940" y="340" />
              <mxPoint x="940" y="172" />
            </Array>
          </mxGeometry>
        </mxCell>
        <mxCell id="sCZkjAEtWjabLYPIgtKf-32" style="edgeStyle=orthogonalEdgeStyle;rounded=0;orthogonalLoop=1;jettySize=auto;html=1;entryX=0;entryY=0.5;entryDx=0;entryDy=0;strokeWidth=2;fillColor=#f8cecc;strokeColor=#b85450;" edge="1" parent="1" source="sCZkjAEtWjabLYPIgtKf-35" target="sCZkjAEtWjabLYPIgtKf-39">
          <mxGeometry relative="1" as="geometry">
            <Array as="points">
              <mxPoint x="940" y="340" />
              <mxPoint x="940" y="200" />
            </Array>
          </mxGeometry>
        </mxCell>
        <mxCell id="sCZkjAEtWjabLYPIgtKf-33" style="edgeStyle=orthogonalEdgeStyle;rounded=0;orthogonalLoop=1;jettySize=auto;html=1;entryX=0;entryY=0.75;entryDx=0;entryDy=0;entryPerimeter=0;strokeWidth=2;fillColor=#f8cecc;strokeColor=#b85450;" edge="1" parent="1" source="sCZkjAEtWjabLYPIgtKf-35" target="sCZkjAEtWjabLYPIgtKf-45">
          <mxGeometry relative="1" as="geometry" />
        </mxCell>
        <mxCell id="sCZkjAEtWjabLYPIgtKf-34" style="edgeStyle=orthogonalEdgeStyle;rounded=0;orthogonalLoop=1;jettySize=auto;html=1;strokeWidth=2;fillColor=#f8cecc;strokeColor=#b85450;" edge="1" parent="1" source="sCZkjAEtWjabLYPIgtKf-35">
          <mxGeometry relative="1" as="geometry">
            <Array as="points">
              <mxPoint x="940" y="340" />
              <mxPoint x="940" y="360" />
              <mxPoint x="1012" y="360" />
            </Array>
            <mxPoint x="1012" y="360" as="targetPoint" />
          </mxGeometry>
        </mxCell>
        <mxCell id="sCZkjAEtWjabLYPIgtKf-35" value="Child Page Table" style="rounded=0;whiteSpace=wrap;html=1;fillColor=#f8cecc;strokeColor=#b85450;" vertex="1" parent="1">
          <mxGeometry x="800" y="310" width="120" height="60" as="geometry" />
        </mxCell>
        <mxCell id="sCZkjAEtWjabLYPIgtKf-36" value="" style="shape=table;html=1;whiteSpace=wrap;startSize=0;container=1;collapsible=0;childLayout=tableLayout;" vertex="1" parent="1">
          <mxGeometry x="1010" y="140" width="110" height="280" as="geometry" />
        </mxCell>
        <mxCell id="sCZkjAEtWjabLYPIgtKf-37" value="" style="shape=partialRectangle;html=1;whiteSpace=wrap;collapsible=0;dropTarget=0;pointerEvents=0;fillColor=none;top=0;left=0;bottom=0;right=0;points=[[0,0.5],[1,0.5]];portConstraint=eastwest;" vertex="1" parent="sCZkjAEtWjabLYPIgtKf-36">
          <mxGeometry width="110" height="40" as="geometry" />
        </mxCell>
        <mxCell id="sCZkjAEtWjabLYPIgtKf-38" value="" style="shape=partialRectangle;html=1;whiteSpace=wrap;connectable=0;overflow=hidden;fillColor=#dae8fc;top=0;left=0;bottom=0;right=0;strokeColor=#6c8ebf;" vertex="1" parent="sCZkjAEtWjabLYPIgtKf-37">
          <mxGeometry width="110" height="40" as="geometry" />
        </mxCell>
        <mxCell id="sCZkjAEtWjabLYPIgtKf-39" value="" style="shape=partialRectangle;html=1;whiteSpace=wrap;collapsible=0;dropTarget=0;pointerEvents=0;fillColor=none;top=0;left=0;bottom=0;right=0;points=[[0,0.5],[1,0.5]];portConstraint=eastwest;" vertex="1" parent="sCZkjAEtWjabLYPIgtKf-36">
          <mxGeometry y="40" width="110" height="40" as="geometry" />
        </mxCell>
        <mxCell id="sCZkjAEtWjabLYPIgtKf-40" value="" style="shape=partialRectangle;html=1;whiteSpace=wrap;connectable=0;overflow=hidden;fillColor=#dae8fc;top=0;left=0;bottom=0;right=0;strokeColor=#6c8ebf;" vertex="1" parent="sCZkjAEtWjabLYPIgtKf-39">
          <mxGeometry width="110" height="40" as="geometry" />
        </mxCell>
        <mxCell id="sCZkjAEtWjabLYPIgtKf-41" value="" style="shape=partialRectangle;html=1;whiteSpace=wrap;collapsible=0;dropTarget=0;pointerEvents=0;fillColor=none;top=0;left=0;bottom=0;right=0;points=[[0,0.5],[1,0.5]];portConstraint=eastwest;" vertex="1" parent="sCZkjAEtWjabLYPIgtKf-36">
          <mxGeometry y="80" width="110" height="40" as="geometry" />
        </mxCell>
        <mxCell id="sCZkjAEtWjabLYPIgtKf-42" value="" style="shape=partialRectangle;html=1;whiteSpace=wrap;connectable=0;overflow=hidden;top=0;left=0;bottom=0;right=0;" vertex="1" parent="sCZkjAEtWjabLYPIgtKf-41">
          <mxGeometry width="110" height="40" as="geometry" />
        </mxCell>
        <mxCell id="sCZkjAEtWjabLYPIgtKf-43" value="" style="shape=partialRectangle;html=1;whiteSpace=wrap;collapsible=0;dropTarget=0;pointerEvents=0;fillColor=none;top=0;left=0;bottom=0;right=0;points=[[0,0.5],[1,0.5]];portConstraint=eastwest;" vertex="1" parent="sCZkjAEtWjabLYPIgtKf-36">
          <mxGeometry y="120" width="110" height="40" as="geometry" />
        </mxCell>
        <mxCell id="sCZkjAEtWjabLYPIgtKf-44" value="" style="shape=partialRectangle;html=1;whiteSpace=wrap;connectable=0;overflow=hidden;top=0;left=0;bottom=0;right=0;" vertex="1" parent="sCZkjAEtWjabLYPIgtKf-43">
          <mxGeometry width="110" height="40" as="geometry" />
        </mxCell>
        <mxCell id="sCZkjAEtWjabLYPIgtKf-45" value="" style="shape=partialRectangle;html=1;whiteSpace=wrap;collapsible=0;dropTarget=0;pointerEvents=0;fillColor=none;top=0;left=0;bottom=0;right=0;points=[[0,0.5],[1,0.5]];portConstraint=eastwest;" vertex="1" parent="sCZkjAEtWjabLYPIgtKf-36">
          <mxGeometry y="160" width="110" height="40" as="geometry" />
        </mxCell>
        <mxCell id="sCZkjAEtWjabLYPIgtKf-46" value="" style="shape=partialRectangle;html=1;whiteSpace=wrap;connectable=0;overflow=hidden;fillColor=#dae8fc;top=0;left=0;bottom=0;right=0;strokeColor=#6c8ebf;" vertex="1" parent="sCZkjAEtWjabLYPIgtKf-45">
          <mxGeometry width="110" height="40" as="geometry" />
        </mxCell>
        <mxCell id="sCZkjAEtWjabLYPIgtKf-47" value="" style="shape=partialRectangle;html=1;whiteSpace=wrap;collapsible=0;dropTarget=0;pointerEvents=0;fillColor=none;top=0;left=0;bottom=0;right=0;points=[[0,0.5],[1,0.5]];portConstraint=eastwest;" vertex="1" parent="sCZkjAEtWjabLYPIgtKf-36">
          <mxGeometry y="200" width="110" height="40" as="geometry" />
        </mxCell>
        <mxCell id="sCZkjAEtWjabLYPIgtKf-48" value="&lt;span style=&quot;color: rgb(0 , 0 , 0) ; font-family: &amp;#34;helvetica&amp;#34; ; font-size: 12px ; font-style: normal ; font-weight: 400 ; letter-spacing: normal ; text-align: center ; text-indent: 0px ; text-transform: none ; word-spacing: 0px ; background-color: rgb(248 , 249 , 250) ; display: inline ; float: none&quot;&gt;value of child&lt;/span&gt;" style="shape=partialRectangle;html=1;whiteSpace=wrap;connectable=0;overflow=hidden;top=0;left=0;bottom=0;right=0;" vertex="1" parent="sCZkjAEtWjabLYPIgtKf-47">
          <mxGeometry width="110" height="40" as="geometry" />
        </mxCell>
        <mxCell id="sCZkjAEtWjabLYPIgtKf-49" value="" style="shape=partialRectangle;html=1;whiteSpace=wrap;collapsible=0;dropTarget=0;pointerEvents=0;fillColor=none;top=0;left=0;bottom=0;right=0;points=[[0,0.5],[1,0.5]];portConstraint=eastwest;" vertex="1" parent="sCZkjAEtWjabLYPIgtKf-36">
          <mxGeometry y="240" width="110" height="40" as="geometry" />
        </mxCell>
        <mxCell id="sCZkjAEtWjabLYPIgtKf-50" value="value of parent" style="shape=partialRectangle;html=1;whiteSpace=wrap;connectable=0;overflow=hidden;fillColor=#dae8fc;top=0;left=0;bottom=0;right=0;strokeColor=#6c8ebf;" vertex="1" parent="sCZkjAEtWjabLYPIgtKf-49">
          <mxGeometry width="110" height="40" as="geometry" />
        </mxCell>
      </root>
    </mxGraphModel>
  </diagram>
</mxfile>
